:FULLY-SPECIFIED
:FORCE-ALL-JOINTS-BE-3DOF
:DEGREES
2141
root -2.57591 15.2132 -0.152963 903.88 8.33891 185.376
lfemur -57.6705 13.9572 -24.4738
ltibia 53.4144 0 0
lfoot 2.07909 21.5123 0
ltoes 3.5267 0 0
rfemur 4.07885 0.442934 23.8325
rtibia 64.1572 0 0
rfoot 6.05943 17.6828 0
rtoes -24.8157 0 0
lowerback 10.1315 0.231101 -0.376341
upperback -1.53212 0.662665 3.23456
thorax -7.37348 0.447228 3.49427
lowerneck -5.02459 0.595879 -4.13063
upperneck 4.47916 1.01722 2.25435
head 2.29425 0.51412 1.50402
lclavicle 1.74878e-14 -1.79345e-14 0
lhumerus 51.2101 2.35702 102.186
lradius 19.6164 0 0
lwrist -47.6018 0 0
lhand -32.715 352.939 0
lfingers 7.12502 0 0
lthumb -5.93896 -337.157 0
rclavicle 1.74878e-14 -1.79345e-14 0
rhumerus -57.6302 20.5588 -91.3378
rradius 109.754 0 0
rwrist -70.6681 0 0
rhand -15.5739 -392.157 0
rfingers 7.12502 0 0
rthumb 10.6127 298.112 0
2142
root -2.56886 15.2093 -0.443952 903.42 7.30266 184.779
lfemur -55.6615 13.5539 -24.954
ltibia 53.7926 0 0
lfoot 1.22297 22.4757 0
ltoes 4.42885 0 0
rfemur 1.62736 0.00659397 23.0128
rtibia 66.2651 0 0
rfoot 7.79117 18.1414 0
rtoes -23.056 0 0
lowerback 10.2837 0.117358 -1.09833
upperback -1.3784 0.365589 3.15202
thorax -7.27343 0.326448 3.87856
lowerneck -5.148 0.500249 -4.2547
upperneck 4.58914 0.887742 2.2433
head 2.34319 0.441203 1.50669
lclavicle 1.56592e-14 -1.89609e-14 0
lhumerus 51.4793 2.33444 102.879
lradius 17.1429 0 0
lwrist -47.0723 0 0
lhand -32.6681 375.361 0
lfingers 7.12502 0 0
lthumb -5.89375 -314.739 0
rclavicle 1.56592e-14 -1.89609e-14 0
rhumerus -60.1174 19.0607 -92.3357
rradius 109.433 0 0
rwrist -70.4875 0 0
rhand -15.5348 -392.755 0
rfingers 7.12502 0 0
rthumb 10.6498 297.524 0
2143
root -2.5618 15.2055 -0.734941 902.871 6.12727 184.092
lfemur -53.4469 13.0892 -25.5282
ltibia 54.0159 0 0
lfoot 0.18855 23.5751 0
ltoes 5.22427 0 0
rfemur -1.33383 -0.556961 22.1025
rtibia 68.7636 0 0
rfoot 9.54346 18.4854 0
rtoes -21.136 0 0
lowerback 10.4867 -0.0204328 -1.93176
upperback -1.20673 0.0137355 3.05488
thorax -7.17732 0.182604 4.32251
lowerneck -5.29888 0.402811 -4.38228
upperneck 4.77636 0.75439 2.22752
head 2.41728 0.365493 1.50544
lclavicle 1.36292e-14 -2.00773e-14 0
lhumerus 52.259 2.19995 103.314
lradius 14.3467 0 0
lwrist -46.2747 0 0
lhand -32.7055 400.089 0
lfingers 7.12502 0 0
lthumb -5.92989 -290.014 0
rclavicle 1.36292e-14 -2.00773e-14 0
rhumerus -62.9357 17.5814 -93.5162
rradius 109.652 0 0
rwrist -70.5012 0 0
rhand -15.3814 -393.275 0
rfingers 7.12502 0 0
rthumb 10.7969 297.023 0
2144
root -2.53873 15.2127 -0.972574 902.327 5.01895 183.397
lfemur -51.357 12.6311 -26.1529
ltibia 54.1811 0 0
lfoot -0.844994 24.6469 0
ltoes 5.8573 0 0
rfemur -4.52012 -1.17865 21.2988
rtibia 71.5391 0 0
rfoot 10.9618 18.6606 0
rtoes -19.3143 0 0
lowerback 10.7237 -0.158099 -2.75565
upperback -1.0333 -0.338709 2.95466
thorax -7.09749 0.0377134 4.75882
lowerneck -5.45594 0.323437 -4.48648
upperneck 4.97408 0.646326 2.21405
head 2.49214 0.304083 1.50283
lclavicle 1.16025e-14 -2.11947e-14 0
lhumerus 53.4876 1.99598 103.419
lradius 11.4782 0 0
lwrist -45.4688 0 0
lhand -32.806 423.672 0
lfingers 7.12502 0 0
lthumb -6.02698 -266.432 0
rclavicle 1.16025e-14 -2.11947e-14 0
rhumerus -65.7868 16.3216 -94.7139
rradius 110.442 0 0
rwrist -70.8127 0 0
rhand -15.0864 -393.668 0
rfingers 7.12502 0 0
rthumb 11.0803 296.662 0
2145
root -2.51567 15.2198 -1.21021 901.88 4.1654 182.776
lfemur -49.6901 12.2429 -26.774
ltibia 54.4024 0 0
lfoot -1.70656 25.5277 0
ltoes 6.2748 0 0
rfemur -7.63237 -1.77951 20.78
rtibia 74.43 0 0
rfoot 11.7335 18.6231 0
rtoes -17.8246 0 0
lowerback 10.9741 -0.270921 -3.452
upperback -0.874607 -0.63707 2.86267
thorax -7.04443 -0.0858316 5.12144
lowerneck -5.59632 0.2762 -4.5454
upperneck 5.1168 0.584569 2.21084
head 2.54425 0.269679 1.50201
lclavicle 9.78276e-15 -2.22167e-14 0
lhumerus 54.9984 1.75987 103.171
lradius 8.83621 0 0
lwrist -44.8885 0 0
lhand -32.9336 442.728 0
lfingers 7.12502 0 0
lthumb -6.15015 -247.376 0
rclavicle 9.78276e-15 -2.22167e-14 0
rhumerus -68.3216 15.4483 -95.7455
rradius 111.727 0 0
rwrist -71.4585 0 0
rhand -14.6392 -393.904 0
rfingers 7.12502 0 0
rthumb 11.5101 296.469 0
2146
root -2.4926 15.227 -1.44784 901.52 3.53311 182.223
lfemur -48.3943 11.9156 -27.3852
ltibia 54.6737 0 0
lfoot -2.41944 26.2325 0
ltoes 6.47986 0 0
rfemur -10.6742 -2.35776 20.5107
rtibia 77.3949 0 0
rfoot 11.9267 18.3858 0
rtoes -16.6284 0 0
lowerback 11.2356 -0.360965 -4.03355
upperback -0.730084 -0.88602 2.77795
thorax -7.01584 -0.189798 5.41739
lowerneck -5.72075 0.254956 -4.56548
upperneck 5.21404 0.560246 2.21749
head 2.57735 0.257315 1.50295
lclavicle 8.15772e-15 -2.31409e-14 0
lhumerus 56.7206 1.4832 102.613
lradius 6.44287 0 0
lwrist -44.4835 0 0
lhand -33.0808 457.603 0
lfingers 7.12502 0 0
lthumb -6.29232 -232.501 0
rclavicle 8.15772e-15 -2.31409e-14 0
rhumerus -70.5242 14.9209 -96.6128
rradius 113.427 0 0
rwrist -72.3756 0 0
rhand -14.058 -394 0
rfingers 7.12502 0 0
rthumb 12.0691 296.425 0
2147
root -2.46954 15.2342 -1.68547 901.234 3.08857 181.73
lfemur -47.4179 11.6402 -27.9802
ltibia 54.9892 0 0
lfoot -3.00696 26.7765 0
ltoes 6.47559 0 0
rfemur -13.6492 -2.91164 20.4555
rtibia 80.3922 0 0
rfoot 11.6096 17.9613 0
rtoes -15.6873 0 0
lowerback 11.506 -0.430299 -4.51303
upperback -0.59915 -1.09023 2.69953
thorax -7.00945 -0.275951 5.6537
lowerneck -5.82997 0.253558 -4.55313
upperneck 5.27531 0.564483 2.23361
head 2.59513 0.262027 1.50566
lclavicle 6.71511e-15 -2.39648e-14 0
lhumerus 58.5832 1.15752 101.784
lradius 4.32023 0 0
lwrist -44.2034 0 0
lhand -33.2403 468.642 0
lfingers 7.12502 0 0
lthumb -6.4464 -221.461 0
rclavicle 6.71511e-15 -2.39648e-14 0
rhumerus -72.3786 14.699 -97.3178
rradius 115.461 0 0
rwrist -73.5006 0 0
rhand -13.3608 -393.976 0
rfingers 7.12502 0 0
rthumb 12.7398 296.512 0
2148
root -2.44647 15.2413 -1.92311 901.013 2.79825 181.292
lfemur -46.7089 11.4074 -28.5525
ltibia 55.3427 0 0
lfoot -3.4924 27.1748 0
ltoes 6.26507 0 0
rfemur -16.561 -3.43937 20.5792
rtibia 83.3804 0 0
rfoot 10.8504 17.3624 0
rtoes -14.9627 0 0
lowerback 11.7829 -0.48099 -4.90316
upperback -0.48123 -1.25437 2.62643
thorax -7.02294 -0.346059 5.83737
lowerneck -5.92471 0.26586 -4.51481
upperneck 5.31013 0.58841 2.25881
head 2.60133 0.27885 1.51011
lclavicle 5.44265e-15 -2.46861e-14 0
lhumerus 60.5154 0.774398 100.727
lradius 2.49035 0 0
lwrist -43.9977 0 0
lhand -33.4048 476.189 0
lfingers 7.12502 0 0
lthumb -6.60529 -213.912 0
rclavicle 5.44265e-15 -2.46861e-14 0
rhumerus -73.8689 14.7419 -97.8625
rradius 117.749 0 0
rwrist -74.7705 0 0
rhand -12.5656 -393.847 0
rfingers 7.12502 0 0
rthumb 13.5048 296.709 0
2149
root -2.42341 15.2485 -2.16074 900.844 2.62865 180.901
lfemur -46.2155 11.2084 -29.0959
ltibia 55.7284 0 0
lfoot -3.89907 27.4423 0
ltoes 5.85141 0 0
rfemur -19.4133 -3.9392 20.8464
rtibia 86.3179 0 0
rfoot 9.71712 16.602 0
rtoes -14.4162 0 0
lowerback 12.0642 -0.515103 -5.21668
upperback -0.375745 -1.38312 2.55769
thorax -7.05405 -0.401888 5.97543
lowerneck -6.00571 0.285719 -4.45693
upperneck 5.32801 0.623152 2.29272
head 2.59967 0.302818 1.5163
lclavicle 4.32807e-15 -2.53022e-14 0
lhumerus 62.4462 0.325385 99.481
lradius 0.975286 0 0
lwrist -43.816 0 0
lhand -33.567 480.591 0
lfingers 7.12502 0 0
lthumb -6.76191 -209.509 0
rclavicle 4.32807e-15 -2.53022e-14 0
rhumerus -74.979 15.0092 -98.2487
rradius 120.21 0 0
rwrist -76.1222 0 0
rhand -11.6904 -393.631 0
rfingers 7.12502 0 0
rthumb 14.3469 297 0
2150
root -2.40034 15.2557 -2.39837 900.716 2.54624 180.552
lfemur -45.8859 11.034 -29.6038
ltibia 56.1403 0 0
lfoot -4.25027 27.5943 0
ltoes 5.23771 0 0
rfemur -22.2095 -4.40936 21.2217
rtibia 89.1631 0 0
rfoot 8.27812 15.6928 0
rtoes -14.0093 0 0
lowerback 12.3475 -0.534708 -5.46631
upperback -0.282121 -1.48114 2.49235
thorax -7.10046 -0.445204 6.07489
lowerneck -6.0737 0.306987 -4.38593
upperneck 5.33847 0.659838 2.33493
head 2.59385 0.328968 1.52422
lclavicle 3.3591e-15 -2.58107e-14 0
lhumerus 64.3048 -0.197954 98.0879
lradius -0.202885 0 0
lwrist -43.608 0 0
lhand -33.7194 482.193 0
lfingers 7.12502 0 0
lthumb -6.90917 -207.905 0
rclavicle 3.3591e-15 -2.58107e-14 0
rhumerus -75.693 15.4605 -98.4785
rradius 122.764 0 0
rwrist -77.4925 0 0
rhand -10.7533 -393.348 0
rfingers 7.12502 0 0
rthumb 15.2487 297.363 0
2151
root -2.37727 15.2628 -2.63601 900.618 2.51751 180.237
lfemur -45.6682 10.8751 -30.07
ltibia 56.5724 0 0
lfoot -4.56931 27.6458 0
ltoes 4.42706 0 0
rfemur -24.9535 -4.84807 21.6699
rtibia 91.8746 0 0
rfoot 6.60152 14.6476 0
rtoes -13.7035 0 0
lowerback 12.6305 -0.54187 -5.66479
upperback -0.199779 -1.55312 2.42943
thorax -7.15989 -0.477775 6.14277
lowerneck -6.12944 0.32352 -4.30825
upperneck 5.35103 0.689595 2.38507
head 2.58759 0.352334 1.53386
lclavicle 2.52348e-15 -2.62093e-14 0
lhumerus 66.0202 -0.804057 96.5886
lradius -1.0221 0 0
lwrist -43.3231 0 0
lhand -33.8549 481.34 0
lfingers 7.12502 0 0
lthumb -7.03997 -208.755 0
rclavicle 2.52348e-15 -2.62093e-14 0
rhumerus -75.995 16.0551 -98.5538
rradius 125.329 0 0
rwrist -78.8182 0 0
rhand -9.77228 -393.013 0
rfingers 7.12502 0 0
rthumb 16.1927 297.781 0
2152
root -2.35421 15.27 -2.87364 900.538 2.50895 179.949
lfemur -45.5106 10.7227 -30.4881
ltibia 57.0187 0 0
lfoot -4.87949 27.6118 0
ltoes 3.42257 0 0
rfemur -27.6487 -5.25357 22.1555
rtibia 94.4107 0 0
rfoot 4.7555 13.4791 0
rtoes -13.4603 0 0
lowerback 12.9111 -0.538657 -5.82484
upperback -0.128144 -1.60372 2.36798
thorax -7.23005 -0.501365 6.18609
lowerneck -6.17364 0.329172 -4.23031
upperneck 5.37521 0.703551 2.44274
head 2.58462 0.367952 1.5452
lclavicle 1.80892e-15 -2.64955e-14 0
lhumerus 67.5216 -1.50137 95.0238
lradius -1.4603 0 0
lwrist -42.9111 0 0
lhand -33.9659 478.378 0
lfingers 7.12502 0 0
lthumb -7.14722 -211.715 0
rclavicle 1.80892e-15 -2.64955e-14 0
rhumerus -75.869 16.7526 -98.4765
rradius 127.825 0 0
rwrist -80.0362 0 0
rhand -8.76536 -392.644 0
rfingers 7.12502 0 0
rthumb 17.1617 298.234 0
2153
root -2.33114 15.2772 -3.11127 900.466 2.48704 179.683
lfemur -45.3613 10.5677 -30.8517
ltibia 57.4733 0 0
lfoot -5.20411 27.5075 0
ltoes 2.22734 0 0
rfemur -30.2989 -5.6241 22.6433
rtibia 96.73 0 0
rfoot 2.80826 12.2002 0
rtoes -13.2413 0 0
lowerback 13.1869 -0.527135 -5.95919
upperback -0.0666386 -1.63761 2.30701
thorax -7.30864 -0.517743 6.21187
lowerneck -6.20705 0.317797 -4.15855
upperneck 5.42051 0.692833 2.50755
head 2.58866 0.370856 1.55823
lclavicle 1.20316e-15 -2.66668e-14 0
lhumerus 68.738 -2.29832 93.4348
lradius -1.49542 0 0
lwrist -42.3214 0 0
lhand -34.0452 473.651 0
lfingers 7.12502 0 0
lthumb -7.22385 -216.438 0
rclavicle 1.20316e-15 -2.66668e-14 0
rhumerus -75.299 17.5125 -98.2486
rradius 130.171 0 0
rwrist -81.0834 0 0
rhand -7.7506 -392.26 0
rfingers 7.12502 0 0
rthumb 18.1382 298.703 0
2154
root -2.30808 15.2843 -3.34891 900.39 2.41826 179.432
lfemur -45.1683 10.401 -31.1545
ltibia 57.9301 0 0
lfoot -5.56648 27.348 0
ltoes 0.844458 0 0
rfemur -32.9075 -5.95788 23.0978
rtibia 98.7908 0 0
rfoot 0.827964 10.8237 0
rtoes -13.0079 0 0
lowerback 13.4557 -0.509372 -6.08058
upperback -0.0146863 -1.65946 2.24556
thorax -7.39338 -0.528675 6.22712
lowerneck -6.2304 0.28325 -4.0994
upperneck 5.49646 0.648568 2.57912
head 2.60341 0.356083 1.57296
lclavicle 6.93929e-16 -2.67208e-14 0
lhumerus 69.5986 -3.20335 91.8623
lradius -1.10539 0 0
lwrist -41.5037 0 0
lhand -34.0855 467.506 0
lfingers 7.12502 0 0
lthumb -7.26274 -222.581 0
rclavicle 6.93929e-16 -2.67208e-14 0
rhumerus -74.269 18.2942 -97.8721
rradius 132.287 0 0
rwrist -81.8965 0 0
rhand -6.74602 -391.877 0
rfingers 7.12502 0 0
rthumb 19.105 299.169 0
